<svg width="2587" height="1055" viewBox="0 0 2587 1055" fill="none" xmlns="http://www.w3.org/2000/svg">
<rect width="2587" height="1055" fill="white"/>
<path d="M2200.89 195.787C2198.02 260.548 2141.91 310.663 2075.57 307.721C2009.23 304.779 1957.78 249.895 1960.65 185.134C1963.52 120.373 2019.63 70.2579 2085.97 73.1996C2152.31 76.1413 2203.76 131.025 2200.89 195.787Z" fill="#E60023"/>
<path d="M1898.77 862.527C1892.16 877.938 1868.81 871.114 1871.53 854.567L1926.7 394.829V394.829C1978.48 426.687 2037.53 444.82 2098.26 447.513L2109.77 448.023L1898.77 862.527Z" fill="#E60023"/>
<path d="M2270.34 215.873C2269.11 243.537 2263.01 269.138 2252.04 292.675C2241.07 315.981 2226.67 336.016 2208.83 352.781C2191 369.315 2170.34 382.142 2146.84 391.264C2123.57 400.165 2098.8 404.033 2072.52 402.868C2046.47 401.713 2022.14 395.667 1999.52 384.732C1977.15 373.576 1957.7 358.969 1941.17 340.912C1924.89 322.635 1912.32 301.403 1903.46 277.218C1894.61 252.802 1890.8 226.762 1892.02 199.097C1893.27 170.971 1899.38 145.14 1910.36 121.604C1921.34 98.067 1935.74 78.0317 1953.56 61.4977C1971.63 44.7433 1992.3 31.9156 2015.56 23.0144C2039.05 14.1234 2063.83 10.2555 2089.88 11.4106C2116.16 12.576 2140.5 18.3908 2162.91 28.855C2185.55 39.0988 2205.02 53.2443 2221.31 71.2912C2237.62 89.1077 2250.19 110.339 2259.03 134.985C2267.88 159.401 2271.65 186.363 2270.34 215.873ZM2175.24 211.656C2175.92 196.44 2173.99 182.611 2169.46 170.167C2165.17 157.503 2158.96 146.602 2150.81 137.463C2142.68 128.094 2132.96 120.848 2121.63 115.726C2110.55 110.384 2098.55 107.427 2085.64 106.854C2072.73 106.282 2060.41 108.161 2048.67 112.491C2037.17 116.601 2026.95 122.962 2018.02 131.575C2009.33 139.967 2002.29 150.281 1996.9 162.515C1991.52 174.519 1988.49 188.129 1987.81 203.345C1987.18 217.638 1989.01 231.002 1993.31 243.435C1997.61 255.868 2003.71 266.764 2011.61 276.124C2019.74 285.493 2029.34 293.079 2040.4 298.883C2051.7 304.466 2063.81 307.543 2076.72 308.116C2089.63 308.688 2101.84 306.804 2113.35 302.464C2125.09 298.134 2135.42 291.777 2144.34 283.395C2153.26 275.013 2160.42 264.704 2165.81 252.47C2171.43 240.246 2174.58 226.641 2175.24 211.656Z" fill="#E60023"/>
<path d="M906.241 621.53C906.241 653.489 900.515 683.317 889.063 711.014C877.611 738.446 862.031 762.281 842.324 782.522C822.616 802.496 799.446 818.342 772.814 830.06C746.448 841.512 718.084 847.238 687.724 847.238C657.629 847.238 629.266 841.512 602.634 830.06C576.268 818.342 553.098 802.496 533.124 782.522C513.416 762.281 497.836 738.446 486.384 711.014C474.932 683.317 469.206 653.489 469.206 621.53C469.206 589.039 474.932 558.945 486.384 531.247C497.836 503.55 513.416 479.714 533.124 459.74C553.098 439.499 576.268 423.653 602.634 412.201C629.266 400.749 657.629 395.023 687.724 395.023C718.084 395.023 746.448 400.483 772.814 411.402C799.446 422.055 822.616 437.369 842.324 457.343C862.031 477.051 877.611 500.886 889.063 528.85C900.515 556.548 906.241 587.441 906.241 621.53ZM796.383 621.53C796.383 603.953 793.453 588.107 787.594 573.992C782.002 559.61 774.278 547.36 764.424 537.239C754.57 526.853 742.985 518.996 729.669 513.67C716.62 508.077 702.638 505.281 687.724 505.281C672.81 505.281 658.695 508.077 645.378 513.67C632.329 518.996 620.877 526.853 611.023 537.239C601.435 547.36 593.845 559.61 588.252 573.992C582.66 588.107 579.863 603.953 579.863 621.53C579.863 638.042 582.66 653.356 588.252 667.471C593.845 681.586 601.435 693.837 611.023 704.223C620.877 714.61 632.329 722.866 645.378 728.991C658.695 734.85 672.81 737.78 687.724 737.78C702.638 737.78 716.62 734.983 729.669 729.391C742.985 723.798 754.57 715.941 764.424 705.821C774.278 695.701 782.002 683.45 787.594 669.069C793.453 654.687 796.383 638.841 796.383 621.53Z" fill="black"/>
<path d="M293.597 894.82H176.885V711.59C151.039 705.06 127.234 694.586 105.47 680.167C83.9773 665.748 65.4774 648.608 49.9702 628.748C34.463 608.616 22.3565 586.443 13.6506 562.23C5.21688 537.745 1 512.036 1 485.102V309.626H118.12V485.102C118.12 501.154 121.113 516.389 127.098 530.808C133.356 544.955 141.789 557.333 152.4 567.944C163.01 578.554 175.388 586.988 189.535 593.245C203.954 599.23 219.19 602.223 235.241 602.223C251.292 602.223 266.391 599.23 280.538 593.245C294.957 586.988 307.472 578.554 318.082 567.944C328.692 557.333 336.99 544.955 342.975 530.808C349.233 516.389 352.361 501.154 352.361 485.102V309.626H469.074V485.102C469.074 512.036 464.721 537.745 456.015 562.23C447.581 586.443 435.611 608.616 420.103 628.748C404.596 648.608 386.096 665.748 364.604 680.167C343.111 694.586 319.442 705.06 293.597 711.59V894.82Z" fill="black"/>
<path d="M1238.95 398.938L1357.62 398.938L1357.62 864.5L1328.93 864.5L1289.81 819.292C1270.68 836.68 1249.09 850.01 1225.04 859.284C1200.7 868.847 1175.34 873.629 1148.97 873.629C1120.57 873.629 1093.76 868.123 1068.55 857.11C1043.34 846.388 1021.31 831.463 1002.47 812.337C983.637 793.5 968.858 771.33 958.135 745.828C947.123 720.615 941.616 693.664 941.616 664.974L941.616 398.938L1060.29 398.938L1060.29 664.974C1060.29 677.145 1062.61 688.592 1067.24 699.315C1071.88 710.327 1078.26 719.891 1086.37 728.005C1094.49 736.119 1103.9 742.495 1114.63 747.132C1125.35 751.769 1136.8 754.087 1148.97 754.087C1161.43 754.087 1173.17 751.769 1184.18 747.132C1195.19 742.495 1204.75 736.119 1212.87 728.005C1220.98 719.891 1227.36 710.327 1232 699.315C1236.63 688.592 1238.95 677.145 1238.95 664.974L1238.95 398.938Z" fill="black"/>
<path d="M2257.35 871.497H2138.67V405.935H2167.36L2206.49 451.143C2225.61 433.755 2247.2 420.425 2271.26 411.151C2295.6 401.588 2320.96 396.806 2347.33 396.806C2375.73 396.806 2402.54 402.312 2427.75 413.325C2452.96 424.047 2474.99 438.972 2493.82 458.099C2512.66 476.935 2527.44 499.105 2538.16 524.607C2549.17 549.82 2554.68 576.771 2554.68 605.461V871.497H2436.01V605.461C2436.01 593.29 2433.69 581.843 2429.05 571.12C2424.42 560.108 2418.04 550.544 2409.93 542.43C2401.81 534.316 2392.39 527.94 2381.67 523.303C2370.95 518.667 2359.5 516.348 2347.33 516.348C2334.87 516.348 2323.13 518.667 2312.12 523.303C2301.11 527.94 2291.54 534.316 2283.43 542.43C2275.31 550.544 2268.94 560.108 2264.3 571.12C2259.67 581.843 2257.35 593.29 2257.35 605.461V871.497Z" fill="black"/>
<path d="M1530.24 1029.87H1412.2V395.047H1440.53L1487.31 450.417C1497.9 440.402 1509.49 430.959 1522.08 422.088C1534.67 413.218 1547.69 405.635 1561.14 399.339C1574.88 392.758 1589.04 387.607 1603.63 383.887C1618.23 380.167 1632.96 378.307 1647.84 378.307C1680.18 378.307 1710.51 384.174 1738.84 395.906C1767.45 407.352 1792.35 423.662 1813.53 444.837C1834.99 466.013 1851.87 491.623 1864.17 521.669C1876.48 551.428 1882.63 584.479 1882.63 620.82C1882.63 658.592 1876.48 692.644 1864.17 722.976C1851.87 753.021 1834.99 778.632 1813.53 799.807C1792.35 820.696 1767.45 836.72 1738.84 847.88C1710.51 859.04 1680.18 864.62 1647.84 864.62C1637.54 864.62 1627.24 863.475 1616.94 861.186C1606.92 858.897 1596.91 855.892 1586.89 852.172C1577.16 848.166 1567.44 843.731 1557.71 838.866C1548.26 834.002 1539.11 828.994 1530.24 823.844V1029.87ZM1765.02 620.82C1765.02 601.362 1761.87 583.906 1755.58 568.454C1749.57 553.002 1741.27 539.982 1730.68 529.395C1720.1 518.521 1707.65 510.223 1693.34 504.5C1679.03 498.777 1663.87 495.915 1647.84 495.915C1631.82 495.915 1616.65 498.777 1602.35 504.5C1588.32 510.223 1576.02 518.521 1565.43 529.395C1554.85 539.982 1546.4 553.002 1540.11 568.454C1534.1 583.906 1531.09 601.362 1531.09 620.82C1531.09 639.42 1534.1 656.446 1540.11 671.898C1546.4 687.35 1554.85 700.513 1565.43 711.386C1576.02 722.26 1588.32 730.702 1602.35 736.711C1616.65 742.72 1631.82 745.724 1647.84 745.724C1663.87 745.724 1679.03 742.72 1693.34 736.711C1707.65 730.702 1720.1 722.26 1730.68 711.386C1741.27 700.513 1749.57 687.35 1755.58 671.898C1761.87 656.446 1765.02 639.42 1765.02 620.82Z" fill="black"/>
</svg>
