<svg width="681" height="696" viewBox="0 0 681 696" fill="none" xmlns="http://www.w3.org/2000/svg">
<mask id="mask0_528_3463" style="mask-type:luminance" maskUnits="userSpaceOnUse" x="34" y="175" width="503" height="394">
<path d="M536.869 470.847L100.544 568.697L34.2523 273.095L470.577 175.245L536.869 470.847Z" fill="white"/>
</mask>
<g mask="url(#mask0_528_3463)">
<mask id="mask1_528_3463" style="mask-type:luminance" maskUnits="userSpaceOnUse" x="100" y="175" width="371" height="394">
<path fill-rule="evenodd" clip-rule="evenodd" d="M311.597 426.488L470.61 175.547L214.996 410.925L100.546 568.581L267.083 467.486L311.597 426.488Z" fill="white"/>
</mask>
<g mask="url(#mask1_528_3463)">
<path d="M470.61 175.547L34.3455 273.383L100.546 568.581L536.811 470.744L470.61 175.547Z" fill="url(#paint0_linear_528_3463)"/>
</g>
</g>
<mask id="mask2_528_3463" style="mask-type:luminance" maskUnits="userSpaceOnUse" x="497" y="124" width="102" height="103">
<path d="M598.758 208.229L515.767 226.84L497.094 143.572L580.084 124.96L598.758 208.229Z" fill="white"/>
</mask>
<g mask="url(#mask2_528_3463)">
<mask id="mask3_528_3463" style="mask-type:luminance" maskUnits="userSpaceOnUse" x="503" y="137" width="89" height="78">
<path fill-rule="evenodd" clip-rule="evenodd" d="M527.028 137.035L503.901 173.522L568.85 214.678L591.97 178.184L527.028 137.035Z" fill="white"/>
</mask>
<g mask="url(#mask3_528_3463)">
<path d="M515.799 226.575L598.655 207.994L580.074 125.139L497.218 143.72L515.799 226.575Z" fill="url(#paint1_linear_528_3463)"/>
</g>
</g>
<mask id="mask4_528_3463" style="mask-type:luminance" maskUnits="userSpaceOnUse" x="470" y="173" width="98" height="97">
<path d="M567.136 252.125L488.586 269.741L470.971 191.191L549.52 173.575L567.136 252.125Z" fill="white"/>
</mask>
<g mask="url(#mask4_528_3463)">
<mask id="mask5_528_3463" style="mask-type:luminance" maskUnits="userSpaceOnUse" x="476" y="185" width="86" height="73">
<path fill-rule="evenodd" clip-rule="evenodd" d="M561.226 226.723L496.278 185.57L476.678 216.498L541.626 257.65L561.226 226.723Z" fill="white"/>
</mask>
<g mask="url(#mask5_528_3463)">
<path d="M488.575 269.547L566.891 251.984L549.329 173.673L471.013 191.236L488.575 269.547Z" fill="url(#paint2_linear_528_3463)"/>
</g>
</g>
<mask id="mask6_528_3463" style="mask-type:luminance" maskUnits="userSpaceOnUse" x="443" y="216" width="97" height="97">
<path d="M539.957 295.022L461.13 312.7L443.514 234.151L522.342 216.473L539.957 295.022Z" fill="white"/>
</mask>
<g mask="url(#mask6_528_3463)">
<mask id="mask7_528_3463" style="mask-type:luminance" maskUnits="userSpaceOnUse" x="449" y="228" width="86" height="73">
<path fill-rule="evenodd" clip-rule="evenodd" d="M534.008 269.695L469.056 228.543L449.455 259.476L514.405 300.623L534.008 269.695Z" fill="white"/>
</mask>
<g mask="url(#mask7_528_3463)">
<path d="M461.351 312.52L539.673 294.956L522.111 216.645L443.789 234.209L461.351 312.52Z" fill="url(#paint3_linear_528_3463)"/>
</g>
</g>
<mask id="mask8_528_3463" style="mask-type:luminance" maskUnits="userSpaceOnUse" x="416" y="259" width="97" height="97">
<path d="M512.488 338.002L433.938 355.617L416.322 277.068L494.872 259.452L512.488 338.002Z" fill="white"/>
</mask>
<g mask="url(#mask8_528_3463)">
<mask id="mask9_528_3463" style="mask-type:luminance" maskUnits="userSpaceOnUse" x="422" y="271" width="85" height="73">
<path fill-rule="evenodd" clip-rule="evenodd" d="M506.75 312.696L441.803 271.546L422.205 302.472L487.153 343.627L506.75 312.696Z" fill="white"/>
</mask>
<g mask="url(#mask9_528_3463)">
<path d="M434.102 355.525L512.417 337.962L494.854 259.649L416.54 277.211L434.102 355.525Z" fill="url(#paint4_linear_528_3463)"/>
</g>
</g>
<mask id="mask10_528_3463" style="mask-type:luminance" maskUnits="userSpaceOnUse" x="389" y="302" width="97" height="97">
<path d="M485.372 381.17L406.823 398.785L389.145 319.958L467.695 302.343L485.372 381.17Z" fill="white"/>
</mask>
<g mask="url(#mask10_528_3463)">
<mask id="mask11_528_3463" style="mask-type:luminance" maskUnits="userSpaceOnUse" x="394" y="314" width="86" height="73">
<path fill-rule="evenodd" clip-rule="evenodd" d="M479.519 355.66L414.571 314.506L394.973 345.434L459.922 386.59L479.519 355.66Z" fill="white"/>
</mask>
<g mask="url(#mask11_528_3463)">
<path d="M406.871 398.488L485.185 380.925L467.622 302.608L389.308 320.171L406.871 398.488Z" fill="url(#paint5_linear_528_3463)"/>
</g>
</g>
<mask id="mask12_528_3463" style="mask-type:luminance" maskUnits="userSpaceOnUse" x="362" y="345" width="97" height="97">
<path d="M458.18 424.073L379.63 441.689L362.015 363.139L440.564 345.524L458.18 424.073Z" fill="white"/>
</mask>
<g mask="url(#mask12_528_3463)">
<mask id="mask13_528_3463" style="mask-type:luminance" maskUnits="userSpaceOnUse" x="367" y="357" width="86" height="73">
<path fill-rule="evenodd" clip-rule="evenodd" d="M452.283 398.644L387.335 357.488L367.74 388.414L432.688 429.57L452.283 398.644Z" fill="white"/>
</mask>
<g mask="url(#mask13_528_3463)">
<path d="M379.637 441.467L457.948 423.905L440.386 345.591L362.074 363.153L379.637 441.467Z" fill="url(#paint6_linear_528_3463)"/>
</g>
</g>
<mask id="mask14_528_3463" style="mask-type:luminance" maskUnits="userSpaceOnUse" x="189" y="431" width="241" height="241">
<path d="M429.93 627.619L233.972 671.565L189.965 475.329L385.922 431.384L429.93 627.619Z" fill="white"/>
</mask>
<g mask="url(#mask14_528_3463)">
<mask id="mask15_528_3463" style="mask-type:luminance" maskUnits="userSpaceOnUse" x="233" y="443" width="165" height="229">
<path fill-rule="evenodd" clip-rule="evenodd" d="M397.825 484.571L332.875 443.419L303.732 489.409L233.984 671.312L368.678 530.571L397.825 484.571Z" fill="white"/>
</mask>
<g mask="url(#mask15_528_3463)">
<path d="M385.928 431.521L190.059 475.447L233.984 671.312L429.853 627.387L385.928 431.521Z" fill="url(#paint7_linear_528_3463)"/>
</g>
</g>
<mask id="mask16_528_3463" style="mask-type:luminance" maskUnits="userSpaceOnUse" x="334" y="389" width="97" height="97">
<path d="M430.576 467.77L351.749 485.447L334.133 406.898L412.96 389.22L430.576 467.77Z" fill="white"/>
</mask>
<g mask="url(#mask16_528_3463)">
<mask id="mask17_528_3463" style="mask-type:luminance" maskUnits="userSpaceOnUse" x="340" y="401" width="85" height="73">
<path fill-rule="evenodd" clip-rule="evenodd" d="M340.086 432.176L405.034 473.335L424.631 442.4L359.681 401.248L340.086 432.176Z" fill="white"/>
</mask>
<g mask="url(#mask17_528_3463)">
<path d="M351.985 485.231L430.298 467.669L412.734 389.35L334.421 406.913L351.985 485.231Z" fill="url(#paint8_linear_528_3463)"/>
</g>
</g>
<defs>
<linearGradient id="paint0_linear_528_3463" x1="252.478" y1="224.465" x2="318.678" y2="519.662" gradientUnits="userSpaceOnUse">
<stop stop-color="#9800FE"/>
<stop offset="1" stop-color="#2C2CFF"/>
</linearGradient>
<linearGradient id="paint1_linear_528_3463" x1="538.646" y1="134.43" x2="557.227" y2="217.285" gradientUnits="userSpaceOnUse">
<stop stop-color="#9800FE"/>
<stop offset="1" stop-color="#2C2CFF"/>
</linearGradient>
<linearGradient id="paint2_linear_528_3463" x1="510.171" y1="182.455" x2="527.733" y2="260.766" gradientUnits="userSpaceOnUse">
<stop stop-color="#9800FE"/>
<stop offset="1" stop-color="#2C2CFF"/>
</linearGradient>
<linearGradient id="paint3_linear_528_3463" x1="482.95" y1="225.427" x2="500.512" y2="303.738" gradientUnits="userSpaceOnUse">
<stop stop-color="#9800FE"/>
<stop offset="1" stop-color="#2C2CFF"/>
</linearGradient>
<linearGradient id="paint4_linear_528_3463" x1="455.697" y1="268.43" x2="473.259" y2="346.743" gradientUnits="userSpaceOnUse">
<stop stop-color="#9800FE"/>
<stop offset="1" stop-color="#2C2CFF"/>
</linearGradient>
<linearGradient id="paint5_linear_528_3463" x1="428.465" y1="311.39" x2="446.028" y2="389.706" gradientUnits="userSpaceOnUse">
<stop stop-color="#9800FE"/>
<stop offset="1" stop-color="#2C2CFF"/>
</linearGradient>
<linearGradient id="paint6_linear_528_3463" x1="401.23" y1="354.372" x2="418.793" y2="432.686" gradientUnits="userSpaceOnUse">
<stop stop-color="#9800FE"/>
<stop offset="1" stop-color="#2C2CFF"/>
</linearGradient>
<linearGradient id="paint7_linear_528_3463" x1="287.994" y1="453.484" x2="331.918" y2="649.349" gradientUnits="userSpaceOnUse">
<stop stop-color="#9800FE"/>
<stop offset="1" stop-color="#2C2CFF"/>
</linearGradient>
<linearGradient id="paint8_linear_528_3463" x1="373.578" y1="398.132" x2="391.141" y2="476.45" gradientUnits="userSpaceOnUse">
<stop stop-color="#9800FE"/>
<stop offset="1" stop-color="#2C2CFF"/>
</linearGradient>
</defs>
</svg>
