<svg width="26" height="26" viewBox="0 0 26 26" fill="none" xmlns="http://www.w3.org/2000/svg">
<path fill-rule="evenodd" clip-rule="evenodd" d="M3.85584 0.221219C2.91881 0.222344 2.02053 0.595367 1.35835 1.25835C0.696163 1.92133 0.324218 2.82005 0.324219 3.75708L0.324219 22.1195C0.324219 23.0573 0.696746 23.9567 1.35985 24.6198C2.02295 25.2829 2.92231 25.6554 3.86008 25.6554L22.2466 25.6554C23.1843 25.6554 24.0837 25.2829 24.7468 24.6198C25.4099 23.9567 25.7824 23.0573 25.7824 22.1195L25.7824 3.73728C25.7824 3.27259 25.6908 2.81245 25.5129 2.38319C25.3349 1.95392 25.0741 1.56394 24.7453 1.23555C24.4165 0.907157 24.0262 0.646796 23.5968 0.469352C23.1673 0.291907 22.707 0.200861 22.2423 0.201419L3.85584 0.221219ZM3.15291 22.1195L3.15291 3.75708C3.15291 3.56953 3.22742 3.38966 3.36004 3.25704C3.49266 3.12442 3.67253 3.04991 3.86008 3.04991L15.882 3.03011L15.882 22.8267L3.86008 22.8267C3.67253 22.8267 3.49266 22.7522 3.36004 22.6196C3.22742 22.487 3.15291 22.3071 3.15291 22.1195Z" fill="#676767"/>
</svg>
